Los proximos tres dias (2010) [BluRay 1080p][Ingles(Us)DTS-Español(Es)AC3]
 
http://www.tripictures-spain.com/thenextthreedays/ 
http://www.imdb.com/title/tt1458175/ 
http://www.elseptimoarte.net/peliculas/the-next-three-days-3479.html

English:
Title: The next three days 
Country: USA 
USA release: 19/11/2010 
Released in Spain: 05/01/2011 
Released on DVD (rental): 30/03/2011 
Studio: Lionsgate 
Director: Paul Haggis 
Screenplay: Paul Haggis, Fred Cavayé, Guillaume Lemans 
Starring: Russell Crowe, Elizabeth Banks, RZA, Brian Dennehy, Ty Simpkins, Olivia Wilde, Jonathan Tucker, Lennie James, Aisha Hinds, Daniel Stern, Liam Neeson 
Rating: Not recommended for children under 12 years 


Synopsis: 
The story is about Lisa and Julie, who live very happy marriage, the days could not be better next to his young son Oscar. However, the tranquility of home and family suffer a blow after the police arrest Lisa for murder. 20 years of pressure may drive away the couple, Lisa of her son, but Julien is not willing to bear, he believes in his innocence and prove to be ready for anything. 3 years of virtual seclusion and distance have passed and the love and confidence are strengthened. Julie can not stand and decides to go beyond the bounds of justice out of love for her son and her. 

Production notes: 
Remake French film based on the 2008, 'Pour Elle. " 

======================= 
General 
Full name: files/Proximos.Tres.Dias.1080p.Castellano.CadagotoHD.mkv 
Format: Matroska 
File size: 10.3 GiB 
Duration: 2h 13mn 
Total bit rate: 11.0 Mbps 
Name of the film: the next three days 1080 
coded date: 29/03/2011 16:11:01 UTC 
Writing application: mkvmerge v2.1.0 ('Another Place To Fall') built on August 19, 2007 13:40:07 
Writing library: libebml libmatroska v0.7.7 + v0.8.1 

Video 
ID: 1 
Format: AVC 
Format / Info: Advanced Video Codec 
Format profile: High@L4.1 
Format settings, CABAC: Yes 
Format settings, rethinking: 5 frames 
Muxing mode: Container profile = Unknown@4.1 
Codec ID: V_MPEG4/ISO/AVC 
Duration: 2h 13mn 
Bit rate: 9 069 Kbps 
Width: 1 920 pixels 
Height: 816 pixels 
Display aspect ratio: 2.35:1 
Frame rate: 23.976 fps 
Color Space: YUV 
subsampling Chroma: 4:2:0 
Bit depth: 8 bits 
Scan type: Progressive 
Bits / (Pixel * Frame): 0.241 
Stream size: 8.23 ??GiB (80%) 
Writing library: x264 core 114 5fd3dce r1913 

Language: English 

Audio # 1 
ID: 2 
Format: AC-3 
Format / Info: Audio Coding 3 
extension as follows: CM (complete core) 
Codec ID: A_AC3 
Duration: 2h 13mn 
Bit rate mode: Constant 
Bitrate: 448 Kbps 
Channel (s): 6 channels 
Channel positions: Front: LCR, side: LR, LFE 
Sampling frequency: 48.0 kHz 
Bit depth: 16 bits 
Stream size: 427 MiB (4%) 
Language: Spanish 

Audio # 2 
ID: 3 
Format: DTS 
Format / Info: Digital Theater Systems 
Codec ID: A_DTS 
Duration: 2h 13mn 
Bit rate mode: Constant 
Recording speed: 1 510 Kbps 
Channel (s): 6 channels 
Channel positions: Front: LCR, side: LR, LFE 
Sampling frequency: 48.0 kHz 
Bit depth: 24 bits 
Stream size: 1.40 GiB (14%) 
Language: English 

Text # 1 
ID: 4 
Format: UTF-8 
Codec ID: S_TEXT/UTF8 
Codec ID / Info: UTF-8 Plain Text 
Title: Forced 1ol Espa? 
Language: Spanish 

Text # 2 
ID: 5 
Format: UTF-8 
Codec ID: S_TEXT/UTF8 
Codec ID / Info: UTF-8 Plain Text 
Title: Full 1ol Espa? 
Language: Spanish 

Text # 3 
ID: 6 
Format: UTF-8 
Codec ID: S_TEXT/UTF8 
Codec ID / Info: UTF-8 Plain Text 
Title: Full English 
Language: English 
==========================================







Spanish:
Título: Los próximos tres días
Título original: The Next Three Days
País: USA 
Estreno en USA: 19/11/2010 
Estreno en España: 05/01/2011 
Lanzamiento en DVD (alquiler): 30/03/2011 
Productora: Lionsgate 
Director: Paul Haggis 
Guión: Paul Haggis, Fred Cavayé, Guillaume Lemans 
Reparto: Russell Crowe, Elizabeth Banks, RZA, Brian Dennehy, Ty Simpkins, Olivia Wilde, Jonathan Tucker, Lennie James, Aisha Hinds, Daniel Stern, Liam Neeson 
Calificación: No recomendada para menores de 12 años


Sinopsis:
La historia es la de Lisa y Julien, los cuales viven muy feliz su matrimonio, los días no podrían ser mejores al lado de su pequeño hijo Oscar. Sin embargo la tranquilidad del hogar y el núcleo familiar sufren un golpe luego de que la policía detiene a Lisa por un asesinato. 20 años de presión pueden alejar a la pareja, a Lisa de su hijo, pero Julien no está dispuesto a soportarlo, él cree en su inocencia y probará estar dispuesto a todo. 3 años de encierro y virtual distancia han pasado y el amor y la confianza siguen fortalecidos. Julien ya no soporta y decide pasar los límites de la justicia por amor, por su hijo y por ella. 

Notas de Producción:
Remake basado en la película francesa de 2008, 'Pour Elle'. 


=======================
General 
Nombre completo: files/Proximos.Tres.Dias.1080p.Castellano.CadagotoHD.mkv 
Formato: Matroska 
Tamaño del archivo: 10.3 GiB 
Duración: 2h 13mn 
Tasa de bits total: 11.0 Mbps 
Nombre de la película: Los tres proximos dias 1080p 
fecha codificada: 29/03/2011 16:11:01 UTC 
aplicación de la escritura: mkvmerge v2.1.0 ('Another Place To Fall') se basó en 19 de agosto 2007 13:40:07 
la colección de la escritura: libebml v0.7.7 + libmatroska v0.8.1 

Video 
ID: 1 
Formato: AVC 
Formato / Info: Advanced Video Codec 
Formato del perfil: High@L4.1 
Ajustes del formato, CABAC: Sí 
Ajustes del formato, replanteamientos: 5 fotogramas 
Muxing modo: el perfil de contenedores = Unknown@4.1 
ID Códec: V_MPEG4/ISO/AVC 
Duración: 2h 13mn 
Velocidad de grabación: 9 069 Kbps 
Ancho: 1 920 píxeles 
Altura: 816 píxeles 
Mostrar la relación de aspecto: 2.35:1 
Velocidad de cuadros: 23.976 fps 
Espacio de color: YUV 
submuestreo Chroma: 4:2:0 
La profundidad de bits: 8 bits 
Tipo de exploración: Progresivo 
Bits / (Pixel * cuadro): 0.241 
Stream size: 8.23 ??GiB (80%) 
la colección de la escritura: x264 core 114 r1913 5fd3dce 

Idioma: Inglés 

Audio # 1 
ID: 2 
Formato: AC-3 
Formato / Info: Audio Coding 3 
extensión modo: CM (completo principal) 
ID Códec: A_AC3 
Duración: 2h 13mn 
Poco el modo de tasa: Constante 
Velocidad de bits: 448 Kbps 
Canal (s): 6 canales 
Canal posiciones: Front: LCR, laterales: LR, LFE 
Frecuencia de muestreo: 48,0 KHz 
La profundidad de bits: 16 bits 
Stream size: 427 MiB (4%) 
Idioma: Español 

Audio # 2 
ID: 3 
Formato: DTS 
Formato / Info: Digital Theater Systems 
ID Códec: A_DTS 
Duración: 2h 13mn 
Poco el modo de tasa: Constante 
Velocidad de grabación: 1 510 Kbps 
Canal (s): 6 canales 
Canal posiciones: Front: LCR, laterales: LR, LFE 
Frecuencia de muestreo: 48,0 KHz 
La profundidad de bits: 24 bits 
Stream size: 1.40 GiB (14%) 
Idioma: Inglés 

Texto # 1 
ID: 4 
Formato: UTF-8 
ID Códec: S_TEXT/UTF8 
ID Codec / Info: UTF-8 Texto sin formato 
Título: Forzados 1ol Espa? 
Idioma: Español 

Texto # 2 
ID: 5 
Formato: UTF-8 
ID Códec: S_TEXT/UTF8 
ID Codec / Info: UTF-8 Texto sin formato 
Título: Completos 1ol Espa? 
Idioma: Español 

Texto # 3 
ID: 6 
Formato: UTF-8 
ID Códec: S_TEXT/UTF8 
ID Codec / Info: UTF-8 Texto sin formato 
Título: Desayuno Inglés 
Idioma: Inglés
==========================================